<?xml version="1.0" encoding="UTF-8" standalone="no"?>
<svg
   viewBox="0 0 50.000001 55.2602"
   width="500"
   height="552.60199"
   version="1.1"
   id="svg10"
   sodipodi:docname="c.svg"
   inkscape:version="1.1.1 (3bf5ae0d25, 2021-09-20)"
   xmlns:inkscape="http://www.inkscape.org/namespaces/inkscape"
   xmlns:sodipodi="http://sodipodi.sourceforge.net/DTD/sodipodi-0.dtd"
   xmlns="http://www.w3.org/2000/svg"
   xmlns:svg="http://www.w3.org/2000/svg"
   xmlns:rdf="http://www.w3.org/1999/02/22-rdf-syntax-ns#"
   xmlns:cc="http://creativecommons.org/ns#"
   xmlns:dc="http://purl.org/dc/elements/1.1/">
  <metadata
     id="metadata16">
    <rdf:RDF>
      <cc:Work
         rdf:about="">
        <dc:format>image/svg+xml</dc:format>
        <dc:type
           rdf:resource="http://purl.org/dc/dcmitype/StillImage" />
      </cc:Work>
    </rdf:RDF>
  </metadata>
  <defs
     id="defs14" />
  <sodipodi:namedview
     pagecolor="#ffffff"
     bordercolor="#666666"
     borderopacity="1"
     objecttolerance="10"
     gridtolerance="10"
     guidetolerance="10"
     inkscape:pageopacity="0"
     inkscape:pageshadow="2"
     inkscape:window-width="1920"
     inkscape:window-height="1017"
     id="namedview12"
     showgrid="false"
     fit-margin-top="0"
     fit-margin-left="0"
     fit-margin-right="0"
     fit-margin-bottom="0"
     inkscape:zoom="0.50000001"
     inkscape:cx="-85.999998"
     inkscape:cy="280.99999"
     inkscape:window-x="-8"
     inkscape:window-y="-8"
     inkscape:window-maximized="1"
     inkscape:current-layer="svg10"
     inkscape:pagecheckerboard="0"
     showguides="true"
     inkscape:guide-bbox="true" />
  <path
     id="path2"
     style="fill:#000000;fill-opacity:1;stroke-width:1.31572"
     d="M 24.969106,9.9931781e-6 C 24.444792,-0.00262144 23.920416,0.11944232 23.475045,0.36877104 19.076597,2.8331125 5.8377725,10.247291 1.4393244,12.710317 0.54858284,13.207659 0,14.128579 0,15.125894 v 24.681549 0.235647 c 0,1.002578 0.55009378,1.927394 1.4421513,2.428683 4.4155521,2.477499 17.6988347,9.934973 22.1130707,12.412472 0.892058,0.501289 1.992214,0.501289 2.885587,0 4.415553,-2.477499 17.698834,-9.934973 22.113071,-12.412472 0.862233,-0.483815 1.403077,-1.363803 1.439839,-2.325892 1.8e-5,-2.57e-4 -1.9e-5,-5.15e-4 0,-7.71e-4 0.0047,-0.06542 0.0068,-0.130685 0.0062,-0.195559 -9.63e-4,-0.08916 -0.0017,-0.202133 -0.0026,-0.297065 V 15.217892 c 0,-0.246587 -0.03367,-0.488416 -0.09714,-0.720562 -0.08473,-0.396635 -0.251101,-0.777218 -0.57794,-1.083156 C 49.080147,13.097087 48.80916,12.856341 48.453916,12.656351 44.055468,10.193326 30.861614,2.8423328 26.463166,0.37930706 26.262881,0.26718269 26.046019,0.18100258 25.820982,0.11847608 25.551491,0.04046317 25.273114,4.1930797e-4 24.994546,7.8092218e-4 24.986056,6.7292631e-4 24.977597,5.260869e-5 24.969106,9.9931781e-6 Z M 24.998658,9.2102988 c 6.746822,0 12.651105,3.6350802 15.859809,9.0517342 l -7.998389,4.570325 a 9.2100316,9.2100316 0 0 0 -7.86142,-4.412284 9.2100316,9.2100316 0 0 0 -9.210032,9.210032 9.2100316,9.2100316 0 0 0 9.210032,9.210031 9.2100316,9.2100316 0 0 0 7.939541,-4.546682 l 8.073168,4.441835 c -3.171608,5.561928 -9.157071,9.315136 -16.012709,9.315136 -10.16656,0 -18.4200638,-8.253504 -18.4200638,-18.420064 0,-10.166559 8.2535038,-18.4200632 18.4200638,-18.4200632 z" />
</svg>
