<?xml version="1.0" encoding="UTF-8" standalone="no"?>
<svg
   fill="none"
   height="654.94098mm"
   viewBox="204.925 153.577 667.00154 852.06409"
   width="582.34399mm"
   version="1.1"
   id="svg43"
   sodipodi:docname="csharp.svg"
   inkscape:version="1.1.1 (3bf5ae0d25, 2021-09-20)"
   xmlns:inkscape="http://www.inkscape.org/namespaces/inkscape"
   xmlns:sodipodi="http://sodipodi.sourceforge.net/DTD/sodipodi-0.dtd"
   xmlns="http://www.w3.org/2000/svg"
   xmlns:svg="http://www.w3.org/2000/svg">
  <defs
     id="defs47" />
  <sodipodi:namedview
     id="namedview45"
     pagecolor="#505050"
     bordercolor="#eeeeee"
     borderopacity="1"
     inkscape:pageshadow="0"
     inkscape:pageopacity="0"
     inkscape:pagecheckerboard="0"
     showgrid="false"
     units="mm"
     height="654.941mm"
     inkscape:zoom="0.22881975"
     inkscape:cx="1048.8605"
     inkscape:cy="1151.5614"
     inkscape:window-width="1920"
     inkscape:window-height="1017"
     inkscape:window-x="-8"
     inkscape:window-y="-8"
     inkscape:window-maximized="1"
     inkscape:current-layer="g136"
     inkscape:document-units="mm" />
  <g
     id="g136"
     transform="translate(-45.307718,-4.1678775)">
    <path
       id="path29"
       style="fill:#000000;stroke-width:2.90514"
       d="M 1097.8633 0.01171875 C 1059.129 0.43550638 1020.4812 12.301712 981.1543 35.355469 C 864.52736 103.84129 280.03733 438.80185 106.45508 539.83398 C 34.578948 581.1945 0 644.93232 0 727.65625 L 0 1747.457 C 0 1787.6566 8.6388786 1823.2038 25.197266 1854.1367 L 24.408203 1854.5918 C 42.039512 1886.4612 69.162997 1913.5819 105.09961 1934.6035 C 245.81216 2016.1823 650.04831 2247.8592 863.23633 2371.2207 C 898.01972 2391.3575 928.75746 2409.1997 950.23828 2421.791 C 959.93187 2427.464 973.05566 2435.0824 979.79688 2439.0801 C 985.05879 2442.1648 990.30973 2445.018 995.55469 2447.707 C 1069.1816 2485.916 1141.2352 2485.0739 1215.084 2441.793 C 1508.0066 2272.2779 1801.6067 2104.1196 2094.5293 1935.2812 C 2131.1428 1914.2625 2157.5884 1887.8178 2175.2168 1855.2715 C 2192.1683 1824.079 2200.9824 1788.1406 2200.9824 1747.457 L 2200.9824 1746.8516 C 2200.9824 1746.8278 2200.9844 1746.8052 2200.9844 1746.7812 L 2200.9844 726.97656 C 2200.9844 695.95618 2196.0246 667.22358 2185.8223 641.63672 C 2182.4215 633.10777 2178.4396 624.92899 2173.8633 617.13086 L 2173.8594 617.13281 L 2173.8594 617.13086 C 2156.231 585.94125 2129.7861 560.17579 2094.5293 539.83398 C 1801.6067 370.99583 1508.0066 202.16042 1215.084 33.322266 C 1175.4172 10.606956 1136.5975 -0.41206888 1097.8633 0.01171875 z M 1099.1367 505.93164 C 1369.681 505.93164 1605.6484 653.07123 1732.4434 871.4043 L 1414.4355 1054.4805 C 1351.3765 945.9908 1234.0698 872.75977 1099.8145 872.75977 C 898.42994 872.75977 735.69531 1035.4944 735.69531 1236.8789 C 735.69531 1302.6513 753.32713 1363.6772 783.83984 1417.2422 C 846.22196 1527.0885 964.20236 1600.998 1099.8145 1600.998 C 1236.1063 1600.998 1354.7673 1525.7322 1417.1465 1415.209 L 1735.1582 1598.9648 C 1609.0402 1819.3344 1371.7183 1967.8281 1099.8145 1967.8281 C 828.59032 1967.8281 591.26843 1820.0109 465.15039 1600.998 C 403.44517 1493.8651 368.18945 1369.1006 368.18945 1236.8789 C 368.18945 833.43308 695.01111 505.93164 1099.1367 505.93164 z M 1746.6816 1063.9746 L 1819.2344 1063.9746 L 1819.2344 1122.9648 L 1907.3828 1122.9648 L 1907.3828 1063.9746 L 1979.9355 1063.9746 L 1979.9355 1122.9648 L 2038.9277 1122.9648 L 2038.9277 1195.5195 L 1979.9355 1195.5195 L 1979.9355 1282.9863 L 2038.9277 1282.9863 L 2038.9277 1355.5391 L 1979.9355 1355.5391 L 1979.9355 1414.5312 L 1907.3828 1414.5312 L 1907.3828 1355.5391 L 1819.2344 1355.5391 L 1819.2344 1414.5312 L 1746.6816 1414.5312 L 1746.6816 1355.5391 L 1688.3691 1355.5391 L 1688.3691 1282.9863 L 1746.6816 1282.9863 L 1746.6816 1195.5195 L 1688.3691 1195.5195 L 1688.3691 1122.9648 L 1746.6816 1122.9648 L 1746.6816 1063.9746 z M 1819.2344 1195.5195 L 1819.2344 1282.9863 L 1907.3828 1282.9863 L 1907.3828 1195.5195 L 1819.2344 1195.5195 z "
       transform="matrix(0.34421722,0,0,0.34421722,204.925,157.74488)" />
  </g>
</svg>
