<?xml version="1.0" encoding="UTF-8" standalone="no"?>
<svg
   viewBox="0 0 455 512"
   width="455"
   height="512"
   version="1.1"
   xmlns="http://www.w3.org/2000/svg">
   <path
      d="M 214.42612,2.9956119 C 174.34647,25.961969 53.105534,94.861043 13.025886,117.8274 5.009956,121.82155 0,130.80839 0,139.79522 v 228.66504 1.99708 c 0,9.98537 5.009956,17.97367 13.025886,22.96635 40.079648,22.96636 161.320584,91.86544 201.400234,114.8318 8.01593,4.99268 18.03585,4.99268 26.05177,0 40.07964,-22.96636 161.32058,-91.86544 201.40023,-114.8318 8.01593,-3.99415 13.02589,-12.98098 13.02589,-21.96782 1.7e-4,-0.002 -1.8e-4,-0.005 0,-0.007 V 366.4561 139.79522 c 1.00199,-8.98683 -6.01195,-18.9722 -13.02589,-22.96635 C 401.79847,93.862506 281.55953,25.961969 241.47988,2.9956119 c -9.01791,-3.9941492 -19.03783,-3.9941492 -27.05376,0 z M 372.74073,168.75281 299.59537,210.69137 c -15.02987,-24.96343 -42.08363,-40.94003 -71.14138,-40.94003 -46.09159,0 -84.16725,37.94442 -84.16725,84.87568 1e-5,46.93124 38.07566,84.87566 84.16725,84.87566 30.05974,-0.009 57.1135,-15.9766 72.14337,-41.93857 l 73.14536,40.94003 c -29.05775,50.9254 -83.16528,85.87421 -146.29072,85.87421 -93.18518,0 -168.334519,-76.88737 -168.334519,-170.74987 0,-93.86251 75.149339,-170.749884 168.334519,-170.749884 69.1374,0 120.23895,43.935644 145.28873,85.874214 z" />
</svg>