<?xml version="1.0" encoding="UTF-8" standalone="no"?>
<svg
   viewBox="0 0 455 512"
   width="455"
   height="512"
   version="1.1"
   xmlns="http://www.w3.org/2000/svg">
   <path
      d="m 227.5,0 c -7.1,0 -14.3,1.6000388 -19.7,4.7001141 L 19.7,113.30275 C 8.9,119.5029 0,134.90327 0,147.40358 v 217.20527 c 0,6.30015 2.2,13.20032 5.8,19.40047 L 96.2,331.80805 C 83.3,309.50751 75.8,283.60688 75.8,256.00621 c 0,-83.60203 68,-151.70368 151.7,-151.70368 54,0 104.3,29.0007 131.3,75.80184 l -65.6,38.00092 c -13.5,-23.40056 -38.7,-37.90092 -65.7,-37.90092 -41.8,0 -75.8,34.00083 -75.8,75.80184 0,13.80034 3.8,26.70065 10.2,37.90092 13.1,22.70055 37.6,38.00092 65.6,38.00092 27,0 52.2,-14.50035 65.7,-37.90092 l 65.6,38.00093 c -27,46.70113 -77.4,75.80184 -131.3,75.80184 -56,0 -105,-30.60075 -131.3,-75.90185 L 5.8,384.10932 c 3.6,6.20015 8.5,11.60028 13.9,14.70036 l 188.1,108.50263 c 10.8,6.30015 28.6,6.20015 39.4,0 L 435.3,398.70968 c 5.4,-3.10008 10.3,-8.50021 13.9,-14.70036 3.6,-6.20015 5.8,-13.20032 5.8,-19.40047 V 147.50358 c 0,-6.30015 -2.2,-13.20032 -5.8,-19.40047 -3.6,-6.10015 -8.5,-11.60028 -13.9,-14.70036 L 247.2,4.7001141 C 241.8,1.6000388 234.6,0 227.5,0 Z m 118,230.7056 h 16.8 v 16.80041 h 16.9 v 16.90041 h -16.9 v 16.90041 h -16.8 v -16.90041 h -16.9 v -16.90041 h 16.9 z m 63.2,0 h 16.8 v 16.80041 h 16.9 v 16.90041 h -16.9 v 16.90041 h -16.9 v -16.90041 h -16.9 v -16.90041 h 16.9 z" />
</svg>