<?xml version="1.0" encoding="UTF-8" standalone="no"?>
<svg
   viewBox="0 0 455 512"
   width="455"
   height="512"
   version="1.1"
   id="svg4"
   sodipodi:docname="csharp.svg"
   inkscape:version="1.1.1 (3bf5ae0d25, 2021-09-20)"
   xmlns:inkscape="http://www.inkscape.org/namespaces/inkscape"
   xmlns:sodipodi="http://sodipodi.sourceforge.net/DTD/sodipodi-0.dtd"
   xmlns="http://www.w3.org/2000/svg"
   xmlns:svg="http://www.w3.org/2000/svg">
   <defs
      id="defs8" />
   <sodipodi:namedview
      id="namedview6"
      pagecolor="#505050"
      bordercolor="#eeeeee"
      borderopacity="1"
      inkscape:pageshadow="0"
      inkscape:pageopacity="0"
      inkscape:pagecheckerboard="0"
      showgrid="false"
      inkscape:zoom="1.138"
      inkscape:cx="188.92795"
      inkscape:cy="213.09315"
      inkscape:window-width="1920"
      inkscape:window-height="1009"
      inkscape:window-x="1912"
      inkscape:window-y="-8"
      inkscape:window-maximized="1"
      inkscape:current-layer="svg4" />
   <path
      d="m 226.95654,0.00239467 c -8.00737,0.0877 -15.99688,2.54204003 -24.12675,7.31043983 C 178.72001,21.478344 57.890902,90.761094 22.00701,111.65842 7.14835,120.21336 0,133.39681 0,150.50729 v 210.93407 c 0,8.31483 1.78588,15.66736 5.20892,22.06548 l -0.16312,0.0941 c 3.64484,6.59181 9.25197,12.20142 16.68099,16.5495 29.08889,16.87363 112.65488,64.79334 156.72633,90.30925 7.19061,4.16506 13.5449,7.85552 17.98554,10.45988 2.0039,1.1734 4.71694,2.74917 6.11052,3.57606 1.08777,0.63803 2.17327,1.22818 3.25754,1.78436 15.22057,7.9031 30.11591,7.72892 45.38235,-1.22323 60.55462,-35.06225 121.24929,-69.84386 181.80392,-104.76614 7.56895,-4.34749 13.03594,-9.81727 16.68018,-16.54909 3.5043,-6.45182 5.32642,-13.88526 5.32642,-22.3002 v -0.12521 c 0,-0.005 4.1e-4,-0.01 4.1e-4,-0.0145 V 150.36675 c 0,-6.41621 -1.02532,-12.35922 -3.1344,-17.65156 -0.70304,-1.76412 -1.52619,-3.45581 -2.47223,-5.06876 l -7.7e-4,4.1e-4 v -4.1e-4 c -3.64424,-6.45121 -9.11108,-11.78049 -16.39957,-15.98797 C 372.43839,76.736234 311.74373,41.814564 251.18911,6.8923345 242.98896,2.1939347 234.96394,-0.08522533 226.95658,0.00243467 Z M 227.21978,104.64611 c 55.92846,0 104.70897,30.43413 130.92076,75.59382 l -65.7404,37.86721 C 279.36423,195.66729 255.11392,180.5203 227.3599,180.5203 c -41.63136,0 -75.27279,33.65978 -75.27279,75.31386 0,13.60425 3.64495,26.22676 9.95271,37.30606 12.89599,22.72045 37.28557,38.00779 65.32008,38.00779 28.17501,0 52.70529,-15.56788 65.60068,-38.42832 l 65.74118,38.00777 c -26.07183,45.58092 -75.13236,76.29513 -131.34186,76.29513 -56.069,0 -105.12954,-30.57428 -131.201368,-75.87458 -12.75605,-22.15921 -20.04432,-47.96532 -20.04432,-75.31385 0,-83.44814 67.562428,-151.18805 151.105568,-151.18805 z m 133.86416,115.42477 h 14.99853 v 12.20146 h 18.22254 v -12.20146 h 14.9985 v 12.20146 h 12.19521 v 15.0071 h -12.19521 v 18.0915 h 12.19521 v 15.00671 h -12.19521 v 12.20183 h -14.9985 v -12.20183 h -18.22254 v 12.20183 h -14.99853 v -12.20183 h -12.0547 v -15.00671 h 12.0547 v -18.0915 h -12.0547 v -15.0071 h 12.0547 z m 14.99853,27.20856 v 18.0915 h 18.22254 v -18.0915 z"
      id="path2" />
</svg>